<svg xmlns="http://www.w3.org/2000/svg" width="1300" height="690" viewBox="0 0 1300 690">
    <path d="M225.178 498.72l-18.9-55.02H92.04l-18.9 55.02h-62.58l103.74-294h70.14l103.32 294h-62.58zm-117.6-100.38h83.58l-42-122.22-41.58 122.22zM388.132 302.16c16.52-26.315 40.74-39.48 72.66-39.48s58.235 11.13 78.96 33.39c20.718 22.26 31.08 50.965 31.08 86.1 0 35.143-10.362 63.912-31.08 86.31-20.725 22.405-46.83 33.6-78.33 33.6s-55.932-14.134-73.29-42.42v39.062h-59.22v-310.8h59.22V302.16zm104.37 130.2c12.18-12.317 18.27-29.118 18.27-50.4 0-21.275-6.09-37.937-18.27-49.98-12.18-12.035-26.532-18.06-43.05-18.06-16.524 0-30.87 6.09-43.05 18.27-12.18 12.18-18.27 28.914-18.27 50.19 0 21.28 6.09 38.01 18.27 50.19s26.525 18.27 43.05 18.27c16.518 0 30.87-6.154 43.05-18.48zM635.51 468.9c-22.68-22.115-34.02-51.096-34.02-86.94 0-35.837 11.48-64.68 34.44-86.52 22.956-21.84 51.45-32.76 85.47-32.76 34.02 0 62.51 10.92 85.47 32.76 22.957 21.84 34.44 50.683 34.44 86.52 0 35.845-11.55 64.825-34.65 86.94-23.1 22.123-51.73 33.18-85.89 33.18-34.164 0-62.58-11.057-85.26-33.18zm85.26-16.8c16.52 0 30.727-6.09 42.63-18.27 11.898-12.18 17.85-29.4 17.85-51.66s-5.88-39.408-17.64-51.45c-11.76-12.036-25.974-18.06-42.63-18.06-16.66 0-30.73 6.024-42.21 18.06-11.483 12.042-17.22 29.262-17.22 51.66 0 22.405 5.736 39.624 17.22 51.66 11.48 12.042 25.477 18.06 42 18.06zM1048.786 266.04h59.22v232.68h-59.22v-35.278c-14.845 25.48-39.06 38.22-72.66 38.22-26.322 0-47.88-8.75-64.68-26.25-16.8-17.497-25.2-41.79-25.2-72.87v-136.5h58.8v128.1c0 18.204 4.62 32.2 13.86 42 9.24 9.805 21.84 14.7 37.8 14.7s28.625-4.896 38.01-14.7c9.378-9.8 14.07-23.796 14.07-42V266.04zM1261.3 449.16h28.142v49.56h-37.38c-23.803 0-42.145-5.46-55.02-16.38-12.883-10.92-19.32-28.98-19.32-54.18V314.34h-24.78v-48.3h24.78V208.5h59.22v57.54h52.08v48.3h-52.08v113.82c0 7.56 1.817 12.955 5.46 16.17 3.634 3.223 9.935 4.83 18.9 4.83z" opacity=".8" fill="#222"/>
</svg>
