<svg xmlns="http://www.w3.org/2000/svg" width="1600" height="1432" viewBox="0 0 1600 1432">
    <path d="M858.5 363c50.21 0 98.85 9.804 144.565 29.14 44.222 18.706 83.965 45.51 118.124 79.67 34.16 34.16 60.964 73.903 79.67 118.125C1220.194 635.65 1230 684.29 1230 734.5c0 50.21-9.805 98.85-29.14 144.565-18.706 44.222-45.51 83.965-79.67 118.125-34.16 34.16-73.903 60.964-118.125 79.67C957.35 1096.195 908.71 1106 858.5 1106c-50.21 0-98.85-9.804-144.565-29.14-44.222-18.706-83.965-45.51-118.125-79.67s-60.964-73.903-79.668-118.125C496.805 833.35 487 784.71 487 734.5s9.805-98.85 29.14-144.565c18.706-44.223 45.51-83.966 79.67-118.125 34.16-34.16 73.902-60.964 118.124-79.67C759.65 372.805 808.29 363 858.5 363m0-130C581.53 233 357 457.528 357 734.5S581.528 1236 858.5 1236c276.97 0 501.5-224.528 501.5-501.5S1135.47 233 858.5 233z" opacity=".1"/>
    <path d="M465.227 246.03c-1.224-1.2-1.836-2.722-1.836-4.564s.613-3.36 1.837-4.554c1.224-1.194 2.73-1.79 4.518-1.79 1.296 0 2.45.305 3.465.917 1.014.61 1.76 1.493 2.24 2.645h-1.98c-.744-1.404-1.985-2.106-3.725-2.106-1.356 0-2.475.446-3.357 1.34-.882.894-1.323 2.08-1.323 3.555s.44 2.664 1.323 3.564c.882.9 2 1.35 3.357 1.35.828 0 1.566-.184 2.214-.55s1.15-.89 1.51-1.575h1.98c-.48 1.152-1.227 2.034-2.24 2.646-1.014.613-2.17.92-3.465.92-1.79 0-3.294-.6-4.518-1.8zM591.73 247.847c-1.79 0-3.294-.603-4.518-1.81s-1.836-2.728-1.836-4.57c0-1.843.612-3.36 1.836-4.555 1.224-1.194 2.73-1.79 4.518-1.79 1.788 0 3.29.596 4.51 1.79 1.217 1.194 1.826 2.715 1.826 4.563 0 1.848-.61 3.372-1.827 4.572-1.22 1.2-2.722 1.8-4.51 1.8zm3.348-2.808c.876-.9 1.314-2.09 1.314-3.565s-.438-2.66-1.314-3.555-1.995-1.34-3.357-1.34-2.483.446-3.365 1.34c-.882.894-1.323 2.08-1.323 3.555s.444 2.664 1.332 3.564 2.01 1.35 3.366 1.35c1.356 0 2.472-.45 3.348-1.35zM716.326 235.247h1.64v12.474h-1.64l-6.588-9.9v9.9H708.1v-12.473h1.64l6.587 9.9v-9.9zM828.105 236.56v-1.313h8.227v1.314h-3.295v11.16H831.4v-11.16h-3.295zM948.13 242.573v5.148h-1.638v-12.473h4.05c1.403 0 2.476.342 3.214 1.026.736.684 1.105 1.52 1.105 2.51 0 .99-.27 1.816-.808 2.476-.54.66-1.352 1.073-2.43 1.24l3.438 5.22h-2.053l-3.275-5.147h-1.6zm0-6.012v4.717h2.413c.898 0 1.568-.207 2.006-.62s.657-.994.657-1.738c0-1.573-.89-2.36-2.664-2.36h-2.412zM472.643 367.72l-.972-2.735h-5.543l-.972 2.736h-1.674l4.537-12.473h1.8l4.518 12.474h-1.692zm-6.05-4.03h4.61l-2.305-6.445-2.304 6.444zM585.81 358.577c0 .456.125.834.377 1.134s.576.523.972.667c.395.144.836.27 1.322.378.486.108.972.23 1.458.37.486.137.927.314 1.323.53.396.216.72.54.972.972.252.432.378.966.378 1.602 0 .97-.372 1.817-1.116 2.537-.744.72-1.75 1.08-3.015 1.08s-2.295-.29-3.087-.873-1.188-1.37-1.188-2.367h1.746c.048.564.272 1.02.675 1.368.402.348 1 .522 1.79.522s1.423-.204 1.89-.612c.47-.408.703-.885.703-1.43 0-.547-.125-.967-.377-1.26s-.576-.514-.972-.658-.836-.267-1.322-.37c-.486-.1-.972-.224-1.458-.368s-.927-.328-1.323-.55c-.396-.222-.72-.552-.972-.99s-.378-.98-.378-1.63c0-1.055.375-1.904 1.125-2.546.75-.642 1.728-.963 2.934-.963s2.166.28 2.88.838c.714.558 1.125 1.33 1.233 2.313h-1.82c-.047-.49-.278-.91-.692-1.26-.414-.347-.972-.52-1.674-.52s-1.275.176-1.72.53c-.444.355-.665.873-.665 1.557zM702.484 356.56v-1.313h8.225v1.314h-3.294v11.16h-1.64v-11.16h-3.292zM471.958 475.247h1.656v12.474h-1.656v-5.633h-6.282v5.634h-1.638v-12.473h1.638v5.544h6.282v-5.543zM590.92 475.247v1.296h-4.968v4.248h4.428v1.28h-4.428v4.355h4.968v1.296h-6.606v-12.473h6.606zM701.404 475.247h1.64v11.214h4.372v1.26h-6.012v-12.473zM824.39 476.273c.737.684 1.106 1.56 1.106 2.628s-.357 1.948-1.07 2.638c-.715.69-1.8 1.035-3.25 1.035h-2.412v5.148h-1.64v-12.473h4.052c1.404 0 2.474.342 3.213 1.026zm-5.626 5.004h2.412c.9 0 1.568-.207 2.008-.62.438-.415.656-.994.656-1.738 0-1.573-.89-2.36-2.664-2.36h-2.412v4.717zM936.86 478.577c0 .456.126.834.378 1.134s.576.523.973.667c.397.144.84.27 1.325.378.484.108.97.23 1.457.37.486.137.928.314 1.322.53.396.216.72.54.973.972.252.432.38.966.38 1.602 0 .97-.374 1.817-1.118 2.537-.745.72-1.75 1.08-3.015 1.08-1.268 0-2.297-.29-3.088-.873-.793-.582-1.188-1.37-1.188-2.367h1.745c.047.564.27 1.02.674 1.368.4.348 1 .522 1.79.522.793 0 1.422-.204 1.89-.612.47-.408.702-.885.702-1.43 0-.547-.125-.967-.377-1.26s-.576-.514-.973-.658-.836-.267-1.322-.37c-.486-.1-.973-.224-1.46-.368s-.925-.328-1.32-.55c-.397-.222-.722-.552-.974-.99s-.377-.98-.377-1.63c0-1.055.374-1.904 1.124-2.546.75-.642 1.727-.963 2.934-.963 1.205 0 2.166.28 2.88.838.714.558 1.124 1.33 1.233 2.313h-1.817c-.05-.49-.28-.91-.693-1.26s-.973-.52-1.674-.52-1.275.176-1.72.53c-.442.355-.665.873-.665 1.557zM468.665 607.72h-1.638v-4.715l-4.068-7.758h1.8l3.077 6.246 3.06-6.246h1.818l-4.05 7.758v4.716zM588.04 607.847c-1.788 0-3.293-.603-4.517-1.81s-1.836-2.728-1.836-4.57c0-1.843.612-3.36 1.836-4.555 1.224-1.194 2.73-1.79 4.518-1.79 1.79 0 3.292.596 4.51 1.79s1.827 2.715 1.827 4.563c0 1.848-.61 3.372-1.827 4.572-1.22 1.2-2.722 1.8-4.51 1.8zm3.348-2.808c.876-.9 1.314-2.09 1.314-3.565s-.438-2.66-1.314-3.555-1.995-1.34-3.357-1.34-2.483.446-3.365 1.34c-.882.894-1.323 2.08-1.323 3.555s.444 2.664 1.332 3.564 2.01 1.35 3.366 1.35c1.356 0 2.472-.45 3.348-1.35zM704.393 603.347v-8.1h1.656v8.1c0 1.032.27 1.803.817 2.313.545.51 1.3.765 2.26.765.96 0 1.715-.255 2.268-.765.55-.51.828-1.28.828-2.313v-8.1h1.637v8.1c0 1.464-.447 2.58-1.34 3.348-.895.768-2.03 1.152-3.402 1.152-1.375 0-2.506-.384-3.393-1.152-.89-.768-1.332-1.883-1.332-3.348zM470.645 715.247v1.296h-4.968v4.248h4.428v1.278h-4.428v4.356h4.968v1.296h-6.606v-12.474h6.605zM593.854 715.247v12.474h-1.656v-9.09l-4.176 9.09h-1.062l-4.194-9.09v9.09h-1.638v-12.473h1.674l4.698 10.224 4.68-10.223h1.674zM711.818 716.272c.736.685 1.105 1.56 1.105 2.628s-.355 1.947-1.07 2.638c-.715.69-1.797 1.034-3.248 1.034h-2.412v5.148h-1.64v-12.474h4.052c1.403 0 2.475.343 3.213 1.026zm-5.625 5.004h2.412c.898 0 1.568-.207 2.006-.62.44-.414.66-.993.66-1.737 0-1.573-.89-2.36-2.665-2.36h-2.412v4.716zM830.877 715.247h1.656v12.474h-1.656v-5.633h-6.28v5.634h-1.64v-12.473h1.64v5.544h6.28v-5.543zM951.838 727.72l-.97-2.735h-5.546l-.973 2.736h-1.675l4.537-12.473h1.8l4.52 12.474h-1.694zm-6.047-4.032h4.608l-2.305-6.443-2.302 6.443zM465.37 838.577c0 .456.127.834.38 1.134s.575.522.97.667c.397.144.838.27 1.324.378.486.107.972.23 1.458.37s.927.313 1.323.53c.396.216.72.54.972.972.252.432.378.966.378 1.602 0 .972-.372 1.817-1.116 2.537-.745.72-1.75 1.08-3.016 1.08s-2.295-.29-3.087-.873-1.188-1.37-1.188-2.367h1.745c.048.564.272 1.02.675 1.368.402.35 1 .522 1.79.522s1.423-.204 1.89-.612c.47-.408.703-.885.703-1.43s-.126-.967-.378-1.262c-.252-.294-.576-.513-.972-.656-.396-.145-.837-.268-1.323-.37-.486-.102-.972-.225-1.458-.368-.486-.146-.927-.328-1.323-.55-.397-.223-.72-.552-.973-.99-.252-.438-.378-.98-.378-1.63 0-1.055.374-1.904 1.124-2.546.75-.643 1.728-.963 2.934-.963s2.166.28 2.88.838c.714.558 1.125 1.33 1.233 2.312h-1.817c-.048-.492-.28-.91-.693-1.26-.414-.348-.972-.522-1.674-.522s-1.275.178-1.72.53c-.444.356-.665.875-.665 1.56zM582.604 847.72v-12.473h1.638v12.474h-1.638zM702.45 835.247v1.313l-6.067 9.864h6.066v1.296h-7.958v-1.296l6.084-9.864h-6.084v-1.313h7.957zM819.305 835.247v1.296h-4.97v4.248h4.43v1.278h-4.43v4.356h4.97v1.296h-6.607v-12.474h6.607z" fill="#3A3A3A"/>
</svg>
