<svg xmlns="http://www.w3.org/2000/svg" width="62.75" height="22" viewBox="0 0 62.75 22">
    <path fill="#181818" d="M48.593,1.096h6.944c1.979,0,3.508,0.48,4.592,1.442c1.082,0.961,1.623,2.198,1.623,3.71 c0,2.166-1.24,3.594-3.723,4.284c1.25,0.206,2.258,0.766,3.023,1.679c0.766,0.916,1.148,1.971,1.148,3.164 c0,1.475-0.574,2.697-1.723,3.668S57.795,20.5,55.873,20.5h-7.28V1.096z M51.141,3.14v6.384h4.283c1.178,0,2.096-0.284,2.76-0.854 c0.662-0.569,0.992-1.344,0.992-2.324s-0.33-1.759-0.992-2.338c-0.664-0.578-1.582-0.868-2.76-0.868H51.141z M51.141,18.484h4.592 c1.232,0,2.199-0.309,2.898-0.926c0.699-0.615,1.051-1.459,1.051-2.533c0-1.072-0.379-1.918-1.135-2.533 c-0.756-0.617-1.76-0.925-3.01-0.925h-4.396V18.484z"/>
    <path fill="#181818" d="M8.688,15.432V1.096h2.548v14.336c0,1.605-0.495,2.885-1.484,3.836s-2.296,1.428-3.92,1.428 s-2.936-0.477-3.934-1.428s-1.498-2.23-1.498-3.836h2.604c0.019,0.896,0.256,1.623,0.714,2.184s1.167,0.84,2.128,0.84 c0.961,0,1.675-0.283,2.142-0.854C8.454,17.033,8.688,16.309,8.688,15.432z"/>
    <rect x="20" y="9" fill="#181818" width="19" height="2"/>
</svg>
