<svg xmlns="http://www.w3.org/2000/svg" width="70" height="32" viewBox="0 0 70 32">
    <path fill="#181818" d="M5.76,8.7V0.19h1.95V8.7c0,1.05-0.32,1.89-0.96,2.5c-0.64,0.61-1.48,0.92-2.52,0.92s-1.88-0.31-2.52-0.92	c-0.64-0.61-0.96-1.45-0.96-2.5H2.7c0.01,0.52,0.14,0.94,0.4,1.24c0.25,0.31,0.63,0.46,1.13,0.46s0.88-0.16,1.14-0.47	C5.63,9.62,5.76,9.21,5.76,8.7z"/>
    <path fill="#181818" d="M18.84,12l-0.85-2.41h-4.95L12.19,12h-2.02L14.4,0.17h2.24L20.88,12H18.84z M13.57,8.07h3.89l-1.94-5.56	L13.57,8.07z"/>
    <path fill="#181818" d="M23.82,10.4c-1.17-1.13-1.75-2.58-1.75-4.33s0.58-3.2,1.75-4.33c1.17-1.14,2.6-1.71,4.28-1.71	c1.26,0,2.38,0.31,3.36,0.93s1.69,1.49,2.13,2.63h-2.33C30.63,2.4,29.57,1.8,28.1,1.8c-1.19,0-2.16,0.39-2.92,1.17	c-0.75,0.78-1.13,1.82-1.13,3.1c0,1.28,0.38,2.32,1.13,3.1c0.75,0.78,1.73,1.17,2.92,1.17c1.47,0,2.53-0.6,3.16-1.79h2.33	c-0.44,1.13-1.15,2.01-2.13,2.62s-2.1,0.92-3.36,0.92C26.41,12.1,24.98,11.54,23.82,10.4z"/>
    <path fill="#181818" d="M37.79,12h-1.94V0.19h1.94v5.39l4.59-5.39h2.53l-5.34,5.93L44.91,12h-2.55l-4.57-5.29V12z"/>
    <path fill="#181818" d="M1.27,20.19h4.5c1.21,0,2.15,0.29,2.82,0.88c0.67,0.59,1,1.34,1,2.24c0,1.33-0.77,2.2-2.29,2.62	c0.77,0.12,1.39,0.47,1.86,1.03c0.47,0.56,0.71,1.21,0.71,1.93c0,0.91-0.35,1.65-1.05,2.24C8.12,31.71,7.18,32,6,32H1.27V20.19z M3.21,21.7v3.5h2.4c0.63,0,1.13-0.15,1.49-0.46c0.36-0.31,0.54-0.73,0.54-1.28s-0.18-0.98-0.54-1.29	c-0.36-0.31-0.85-0.47-1.49-0.47H3.21z M3.21,30.49h2.62c0.66,0,1.17-0.16,1.55-0.49c0.38-0.33,0.56-0.79,0.56-1.37	s-0.2-1.05-0.59-1.39c-0.4-0.35-0.92-0.52-1.58-0.52H3.21V30.49z"/>
    <path fill="#181818" d="M19.96,32l-0.85-2.41h-4.95L13.31,32h-2.02l4.23-11.83h2.24L22,32H19.96z M14.69,28.07h3.89l-1.94-5.56	L14.69,28.07z"/>
    <path fill="#181818" d="M25.77,32h-1.94V20.19h1.94v5.39l4.59-5.39h2.53l-5.34,5.93L32.89,32h-2.55l-4.57-5.29V32z"/>
    <path fill="#181818" d="M41.12,20.17v1.51h-4.59v3.59h4.08v1.5h-4.08v3.72h4.59V32h-6.53V20.17H41.12z"/>
    <path fill="#181818" d="M45.44,27.21V32H43.5V20.19h4.08c1.34,0,2.37,0.33,3.09,0.99c0.73,0.66,1.09,1.5,1.09,2.52	c0,0.79-0.24,1.51-0.72,2.14c-0.48,0.63-1.22,1.05-2.22,1.24L51.95,32h-2.36l-2.96-4.79H45.44z M45.44,21.7v4h2.14	c0.74,0,1.29-0.18,1.65-0.53c0.36-0.35,0.54-0.84,0.54-1.47s-0.18-1.12-0.54-1.47c-0.36-0.35-0.91-0.53-1.65-0.53H45.44z"/>
    <rect x="51" y="5" fill="#181818" width="19" height="2"/>
</svg>
