<svg xmlns="http://www.w3.org/2000/svg" width="1141.5" height="500" viewBox="0 0 1141.5 500">
    <path d="M334.502 219.86h59.917l-80.154 276.965h-63.488l-53.568-193.24-55.156 193.24H78.568L0 219.86h59.52l53.173 213.874L168.64 219.86h63.092l52.774 211.89 49.996-211.89zM446.395 468.652c-21.428-20.894-32.14-48.27-32.14-82.137 0-33.86 10.842-61.107 32.536-81.74 21.69-20.635 48.608-30.952 80.75-30.952 32.143 0 59.056 10.317 80.75 30.95 21.687 20.635 32.537 47.883 32.537 81.742 0 33.864-10.912 61.243-32.736 82.137C586.268 489.554 559.218 500 526.946 500c-32.276 0-59.122-10.446-80.55-31.348zm80.55-15.872c15.606 0 29.028-5.754 40.276-17.26 11.24-11.508 16.864-27.777 16.864-48.808 0-21.03-5.556-37.23-16.665-48.607-11.112-11.37-24.54-17.063-40.277-17.063-15.74 0-29.034 5.69-39.878 17.063-10.85 11.377-16.27 27.646-16.27 48.807 0 21.166 5.42 37.437 16.27 48.808 10.845 11.375 24.07 17.06 39.68 17.06zM741.215 277v38.886c14.812-28.036 36.238-42.063 64.28-42.063v57.14h-13.888c-16.666 0-29.232 4.167-37.695 12.5-8.47 8.332-12.697 22.687-12.697 43.054v110.31h-55.95V277h55.95zM901.125 496.825h-55.95V203.193h55.95V371.04l74.2-94.04h75.788l-97.61 111.103 97.61 108.724h-74.598l-75.392-91.66.002 91.658zM1134.042 465.082c0 8.996-3.11 16.535-9.324 22.617-6.22 6.088-13.76 9.125-22.617 9.125-8.866 0-16.337-3.037-22.418-9.126-6.09-6.083-9.127-13.622-9.127-22.618 0-8.99 3.037-16.53 9.127-22.618 6.08-6.08 13.552-9.125 22.42-9.125 8.857 0 16.397 3.043 22.616 9.124 6.212 6.088 9.324 13.63 9.324 22.618z" fill="#222"/>
</svg>
