<svg xmlns="http://www.w3.org/2000/svg" width="1020" height="240" viewBox="0 0 1020 240">
    <path d="M31.942 204.534c-19.915-19.525-29.87-44.27-29.87-74.24 0-29.964 10.005-54.71 30.016-74.24 20.01-19.524 44.515-29.29 73.515-29.29 22.04 0 41.615 5.61 58.725 16.82 17.11 11.216 29.336 26.97 36.686 47.27h-49.01c-9.09-17.784-24.556-26.68-46.4-26.68-18.37 0-33.305 6.046-44.805 18.126-11.506 12.085-17.256 28.13-17.256 48.14s5.75 36.06 17.255 48.14c11.5 12.086 26.434 18.125 44.804 18.125 21.65 0 37.12-8.89 46.4-26.68h49.01c-7.35 20.3-19.575 36.01-36.686 47.125-17.11 11.12-36.685 16.676-58.725 16.676-29.195 0-53.75-9.763-73.66-29.292zM236.392 232.085v-214.6h40.89v214.6h-40.89zM366.02 30.535c0 6.96-2.42 12.86-7.25 17.69-4.837 4.834-10.687 7.25-17.547 7.25-6.865 0-12.715-2.416-17.545-7.25-4.835-4.83-7.25-10.73-7.25-17.69s2.415-12.855 7.25-17.69c4.83-4.83 10.68-7.25 17.545-7.25 6.86 0 12.71 2.42 17.546 7.25 4.83 4.835 7.25 10.73 7.25 17.69zm-45.243 201.55V71.425h40.89v160.66h-40.89zM473.023 234.405c-23.396 0-42.44-7.586-57.13-22.766-14.695-15.177-22.04-35.235-22.04-60.177 0-24.94 7.395-44.9 22.185-59.884 14.79-14.98 33.93-22.476 57.42-22.476s42.775 7.3 57.855 21.895c15.08 14.6 22.62 34.074 22.62 58.434 0 5.61-.39 10.83-1.16 15.66h-117.16c.965 10.44 4.83 18.85 11.6 25.23 6.766 6.38 15.37 9.57 25.81 9.57 14.11 0 24.55-5.8 31.32-17.4h44.08c-4.64 15.275-13.63 27.744-26.97 37.41-13.34 9.67-29.485 14.5-48.43 14.5zm26.825-121.22c-7.25-6.38-16-9.57-26.244-9.57-10.25 0-18.805 3.19-25.665 9.57-6.866 6.38-10.976 14.89-12.326 25.52h75.98c-.58-10.63-4.496-19.14-11.746-25.52zM627.01 71.425v24.07c10.246-17.59 26.872-26.39 49.88-26.39 18.366 0 33.352 6.044 44.95 18.125 11.602 12.085 17.4 28.855 17.4 50.314v94.54h-40.6v-88.74c0-12.563-3.19-22.184-9.57-28.854-6.38-6.67-15.08-10.005-26.1-10.005-11.02 0-19.77 3.335-26.244 10.005-6.48 6.67-9.716 16.29-9.716 28.855v88.74h-40.89V71.425h40.89zM843.638 197.864h19.43v34.22h-25.81c-16.435 0-29.1-3.77-37.99-11.31-8.895-7.54-13.34-20.01-13.34-37.41v-78.59h-17.11v-33.35h17.11v-39.73h40.89v39.73h35.96v33.35h-35.96v78.59c0 5.22 1.256 8.945 3.77 11.166 2.51 2.225 6.86 3.334 13.05 3.334zM885.978 118.405c0-13.92 5.896-25.615 17.69-35.09 11.79-9.47 27.45-14.21 46.98-14.21 19.524 0 35.185 4.69 46.98 14.065 11.79 9.38 18.074 22.09 18.85 38.135h-41.76c-1.16-13.53-9.476-20.3-24.94-20.3-7.735 0-13.73 1.55-17.98 4.64-4.255 3.095-6.38 7.35-6.38 12.76 0 5.415 3.19 9.67 9.57 12.76 6.38 3.094 14.11 5.51 23.2 7.25 9.084 1.74 18.124 3.914 27.114 6.525 8.99 2.61 16.675 7.25 23.055 13.92s9.57 15.514 9.57 26.535c0 14.5-6.14 26.295-18.415 35.38-12.28 9.09-27.94 13.63-46.98 13.63-19.044 0-34.654-4.496-46.834-13.486s-18.85-21.896-20.01-38.716h41.76c1.545 13.535 10.15 20.3 25.81 20.3 7.54 0 13.63-1.688 18.27-5.073 4.64-3.38 6.96-7.83 6.96-13.34s-3.19-9.86-9.57-13.05-14.114-5.656-23.2-7.395c-9.09-1.74-18.124-3.865-27.114-6.38-8.99-2.51-16.675-7.007-23.055-13.485-6.382-6.476-9.572-14.935-9.572-25.375z" opacity=".5" fill="#222"/>
</svg>
